<?xml version="1.0" encoding="utf-8"?>
<!-- Generator: Adobe Illustrator 26.0.3, SVG Export Plug-In . SVG Version: 6.00 Build 0)  -->
<svg version="1.0" id="katman_1" xmlns="http://www.w3.org/2000/svg" xmlns:xlink="http://www.w3.org/1999/xlink" x="0px" y="0px"
	 viewBox="0 0 179 123.4" style="enable-background:new 0 0 179 123.4;" xml:space="preserve">
<style type="text/css">
	.st0{fill:#303AB2;}
</style>
<path class="st0" d="M19,75.1V60.8h-3v-4h3V56c0-2.8,0.7-4.3,2.1-5.4c1-0.8,2.6-1.2,4.7-1.2l2,0.1v3.7H26c-1.7,0-2.5,0.7-2.5,2.5V57
	H27v3.9h-3.4v14.3L19,75.1 M27.8,65c0-5.4,4.4-9.8,9.8-9.8c0.1,0,0.1,0,0.2,0c5.4-0.2,9.9,4,10.1,9.4c0.1,2.8-1,5.4-2.9,7.4
	c-1.9,1.8-4.4,2.8-7,2.8c-5.4,0.2-9.9-4.1-10.1-9.5c0-0.1,0-0.2,0-0.3 M41.9,69.1c1.2-1,1.7-2.5,1.7-4.1c0-1.6-0.5-3-1.6-4.1
	c-1-1.1-2.5-1.7-4-1.7c-1.7,0-3,0.5-4.2,1.7c-1,1-1.6,2.4-1.6,4c0,1.6,0.6,3.1,1.6,4.2c1.1,1.1,2.6,1.7,4.1,1.7
	C39.5,70.8,40.9,70.2,41.9,69.1 M51.4,60h-2.2v-4h2.2v-7h4.3v7h4v4h-4v8.1c0,2,0.6,2.8,2.2,2.8c0.5,0,1,0,1.5-0.2v3.9l-2.2,0.2
	c-3.9,0-5.8-2-5.8-6.2V60 M61.4,65c0-5.4,4.4-9.8,9.8-9.8c0.1,0,0.1,0,0.2,0c5.4-0.1,9.9,4.1,10,9.6c0.1,2.7-1,5.3-2.9,7.2
	c-1.9,1.9-4.5,2.9-7.1,2.8C65.9,74.9,61.5,70.5,61.4,65C61.4,65,61.4,65,61.4,65 M75.4,69.1c1.1-1,1.7-2.5,1.7-4.1s-0.6-3-1.7-4.1
	c-1-1.1-2.5-1.7-4-1.7c-1.5-0.1-3,0.6-4,1.7c-1.1,1-1.7,2.4-1.7,4s0.6,3.1,1.6,4.2c1.1,1.1,2.6,1.7,4.1,1.7
	C73,70.8,74.4,70.2,75.4,69.1 M100.6,58.4L98,61.2c-1.2-1.3-2.9-2-4.7-2c-1.6,0-3,0.5-4,1.6c-1.1,1.1-1.7,2.5-1.7,4.2
	c0,1.7,0.6,3,1.6,4.1c1.1,1.1,2.6,1.7,4.1,1.7c1.9,0,3.4-0.7,4.7-2l2.7,2.8c-1.9,2.1-4.6,3.3-7.4,3.2c-2.6,0-5.2-1-7.1-2.8
	c-1.9-1.8-3-4.3-3-7c0-2.8,1-5.1,3-7c1.9-1.8,4.4-2.8,7-2.8C96.2,55.2,98.6,56.2,100.6,58.4 M116.6,58.2v-2.6h4.4v12.8
	c0,1.6,0.4,2.1,1.4,2.1h1V74c-0.6,0.2-1.3,0.3-2.3,0.3s-1.9-0.2-2.5-0.6c-0.8-0.5-1.3-1.3-1.5-2.2c-1.3,2-3.4,2.9-6.4,2.9
	c-2.5,0-4.9-1-6.6-2.8c-1.7-1.8-2.7-4.3-2.6-6.8c0-2.8,0.9-5,2.6-6.9c1.9-1.7,4-2.7,6.6-2.7C113.7,55.2,115.9,56.5,116.6,58.2
	 M115.3,68.8c1.1-1,1.7-2.4,1.7-4c0-1.6-0.6-3-1.7-4c-1-1.1-2.4-1.7-4-1.7s-2.8,0.6-3.9,1.7c-1,1-1.5,2.4-1.5,4c0,1.6,0.5,3,1.5,4
	s2.3,1.6,4,1.6C112.9,70.4,114.3,69.8,115.3,68.8 M127.4,68.6c1.1,1.5,2.8,2.5,4.7,2.4c2.3,0,3.2-1,3.2-2c0-0.7-0.4-1.2-1-1.5
	c-0.4-0.3-1.1-0.6-1.7-0.7s-1.6-0.6-2.2-0.8c-2.9-1-4.4-2.6-4.4-5.2c-0.1-1.6,0.6-3.1,1.8-4.1c1.3-1,2.9-1.5,4.5-1.5
	c2.3-0.1,4.5,0.9,5.9,2.7l-2.4,2.6c-0.8-1-2-1.5-3.5-1.5c-1.4,0-2.2,0.6-2.2,1.6c0,0.7,0.3,1,0.8,1.3l1.5,0.7l2.2,0.8
	c3.3,1.2,4.8,2.8,4.8,5.5c0,3.4-2.5,6-7.4,6c-3.6,0-6.2-1.5-7.4-3.9L127.4,68.6 M156.3,58.2v-2.6h4.4v12.8c0,1.6,0.4,2.1,1.4,2.1
	h0.9V74c-0.7,0.2-1.5,0.3-2.2,0.3c-1,0-1.9-0.2-2.5-0.6c-0.8-0.5-1.3-1.3-1.5-2.2c-1.3,2-3.4,2.9-6.4,2.9c-2.5,0-4.9-1-6.6-2.8
	c-1.7-1.8-2.7-4.3-2.6-6.8c0-2.8,0.9-5,2.6-6.9c1.7-1.8,4.1-2.7,6.6-2.7C153.4,55.2,155.6,56.5,156.3,58.2 M155,68.8
	c1.1-1,1.7-2.4,1.7-4c0-1.6-0.6-3-1.7-4c-1-1.1-2.4-1.7-4-1.7s-2.8,0.6-4,1.7c-1,1-1.4,2.4-1.4,4c0,1.6,0.5,3,1.5,4s2.3,1.6,4,1.6
	c1.5,0,2.9-0.6,4-1.6"/>
</svg>
