<?xml version="1.0" standalone="no"?>
<!DOCTYPE svg PUBLIC "-//W3C//DTD SVG 20010904//EN"
 "http://www.w3.org/TR/2001/REC-SVG-20010904/DTD/svg10.dtd">
<svg version="1.0" xmlns="http://www.w3.org/2000/svg"
 width="452.000000pt" height="175.000000pt" viewBox="0 0 452.000000 175.000000"
 preserveAspectRatio="xMidYMid meet">
<metadata>
Created by potrace 1.16, written by Peter Selinger 2001-2019
</metadata>
<g transform="translate(0.000000,175.000000) scale(0.100000,-0.100000)"
fill="#000000" stroke="none">
<path d="M458 1439 c-20 -11 -24 -39 -8 -55 5 -5 54 -6 122 -2 62 4 160 3 216
-2 85 -8 106 -7 118 4 18 19 18 22 -8 46 -20 19 -34 20 -222 20 -118 0 -208
-5 -218 -11z"/>
<path d="M407 1143 c-4 -3 -7 -66 -7 -138 0 -126 1 -132 23 -143 31 -16 62
-18 139 -8 37 4 70 6 72 4 2 -2 16 8 31 22 25 23 27 29 22 88 -3 35 -10 69
-16 75 -6 6 -11 27 -11 47 0 20 -5 41 -12 48 -13 13 -229 18 -241 5z"/>
<path d="M1743 1051 c-51 -13 -96 -44 -118 -81 -18 -31 -20 -52 -20 -190 0
-137 2 -159 20 -189 38 -64 65 -76 180 -79 119 -4 148 5 143 46 -2 21 -8 26
-23 24 -61 -10 -138 -14 -160 -8 -15 4 -38 19 -51 33 -23 25 -24 32 -24 162 0
117 3 140 20 168 26 43 83 59 165 46 43 -7 62 -7 67 1 14 20 8 45 -13 56 -26
15 -145 21 -186 11z"/>
<path d="M2162 1046 c-97 -32 -115 -78 -110 -296 l3 -160 37 -37 c36 -36 39
-37 127 -41 152 -7 192 11 221 101 31 98 23 293 -16 369 -31 61 -169 94 -262
64z m173 -87 c17 -17 21 -36 25 -147 6 -150 0 -189 -35 -219 -45 -40 -148 -24
-175 26 -5 11 -10 84 -10 164 0 130 2 147 20 170 31 39 136 43 175 6z"/>
<path d="M2700 1051 c-57 -19 -91 -43 -110 -81 -18 -34 -20 -59 -20 -198 0
-149 1 -161 23 -193 34 -52 78 -69 174 -69 98 0 123 8 157 53 24 31 27 44 29
133 l2 99 -83 3 c-82 3 -83 2 -80 -20 2 -18 11 -24 38 -28 l35 -5 3 -63 c4
-82 -11 -107 -68 -115 -55 -7 -107 9 -127 39 -10 17 -17 56 -21 118 -6 127 4
200 33 234 22 25 29 27 102 27 44 -1 88 -7 102 -14 19 -11 25 -11 32 0 17 26
9 49 -22 65 -35 18 -161 28 -199 15z"/>
<path d="M3192 1023 c-9 -23 -73 -224 -77 -243 -5 -23 -31 -108 -51 -170 -31
-95 -30 -100 6 -100 24 0 33 6 41 28 6 15 15 35 20 44 5 10 9 25 9 33 0 13 15
15 98 13 l97 -3 19 -57 c18 -57 19 -58 57 -58 31 0 39 4 39 18 0 18 -26 111
-55 197 -7 22 -25 81 -40 130 -14 50 -34 113 -44 140 -18 49 -19 50 -63 53
-41 3 -46 1 -56 -25z m73 -155 c10 -35 24 -83 32 -106 21 -64 14 -72 -60 -72
-35 0 -66 3 -69 6 -3 3 0 22 7 42 8 20 24 72 37 115 12 42 25 77 28 77 4 0 14
-28 25 -62z"/>
<path d="M3554 1036 c-2 -6 -3 -126 -2 -266 l3 -255 35 0 35 0 3 198 c1 108 6
197 10 197 4 0 34 -48 66 -106 40 -69 65 -104 75 -102 8 2 44 53 80 113 l66
110 5 -205 5 -205 38 -3 37 -3 -2 268 -3 268 -36 3 c-32 3 -38 -1 -62 -37 -15
-22 -27 -45 -27 -50 0 -5 -4 -11 -8 -13 -5 -2 -26 -33 -46 -70 -21 -38 -39
-68 -42 -68 -4 0 -51 73 -116 179 -35 57 -40 60 -74 59 -20 -1 -38 -6 -40 -12z"/>
<path d="M4142 783 l3 -268 40 0 40 0 0 265 0 265 -43 3 -42 3 2 -268z"/>
<path d="M1010 825 c-17 -21 -22 -235 -6 -257 25 -33 64 -40 161 -26 49 7 95
17 102 24 20 19 25 78 12 125 -7 24 -14 58 -15 76 -6 69 -13 73 -133 73 -83 0
-111 -3 -121 -15z"/>
<path d="M441 592 c-23 -43 1 -49 226 -54 117 -3 216 -1 226 4 10 5 17 17 15
26 -4 21 -76 30 -300 38 -150 5 -157 5 -167 -14z"/>
</g>
</svg>
